<svg xmlns="http://www.w3.org/2000/svg" width="44.951" height="16.19" viewBox="0 0 44.951 16.19"><defs><style>.a{fill:#0071bb;}.a,.b,.c{fill-rule:evenodd;}.b{fill:#fabc19;}.c{fill:#0db04b;}</style></defs><g transform="translate(-22.1 -64.3)"><path class="a" d="M28.978,75.63v1.547h-.033A3.589,3.589,0,0,0,27,75.565a3.267,3.267,0,0,0-.987-.165c-2.7,0-3.916,1.942-3.916,4.508s1.481,4.344,3.85,4.344A3.7,3.7,0,0,0,27,84.12a3.268,3.268,0,0,0,1.876-1.349h.033v.461A2.18,2.18,0,0,1,27,85.667a5.4,5.4,0,0,1-.757.066,5.978,5.978,0,0,1-2.9-.691l-.165,2.336a9.605,9.605,0,0,0,3.291.559c.165,0,.362-.033.527-.033,3.126-.1,4.706-1.316,4.706-4.673v-7.6ZM27,81.981h-.1c-.888,0-1.678-.757-1.678-2.106,0-1.185.592-2.172,1.678-2.172H27a1.909,1.909,0,0,1,1.81,2.04A2.035,2.035,0,0,1,27,81.981Z" transform="translate(0 -7.447)"/><path class="b" d="M55.935,75.3c-2.863,0-5.035,1.645-5.035,4.541,0,2.863,2.172,4.541,5.035,4.541S61,82.737,61,79.841C60.97,76.945,58.8,75.3,55.935,75.3Zm0,6.976c-1.382,0-1.942-1.152-1.942-2.435s.559-2.435,1.942-2.435,1.942,1.152,1.942,2.435S57.317,82.276,55.935,82.276Z" transform="translate(-19.323 -7.38)"/><path class="c" d="M77.5,76.1h3.192l1.81,6.154h.033L84.312,76.1h2.995l-3.192,8.655H80.725Z" transform="translate(-37.169 -7.917)"/><path class="a" d="M103.13,95.315a1.426,1.426,0,0,1-1.415,1.415,1.415,1.415,0,1,1,1.415-1.415Z" transform="translate(-52.467 -19.86)"/><path class="a" d="M115.622,67.92a3.636,3.636,0,0,0-1.218.165,3.488,3.488,0,0,0-1.777,1.152h-.033V64.3H109.6V76.772h2.764V75.225h.033a3,3,0,0,0,2.007,1.612,4.45,4.45,0,0,0,.954.132c2.567,0,3.949-2.139,3.949-4.706C119.308,70.19,117.991,67.92,115.622,67.92ZM114.4,74.7h0a2.284,2.284,0,0,1-.033-4.475h.033a1.927,1.927,0,0,1,1.81,2.172C116.214,73.744,115.523,74.7,114.4,74.7Z" transform="translate(-58.706)"/><path class="b" d="M145.587,77.967a3.47,3.47,0,0,0-1.02-.1c-1.382,0-2.172,1.02-2.172,2.7v3.653H139.4V75.6h2.731V77.21h.033a2.658,2.658,0,0,1,2.567-1.81,8.942,8.942,0,0,1,1.02.1Z" transform="translate(-78.7 -7.447)"/></g></svg>